# xmcd CD database file
#
# Track frame offsets:
#	150
#	15397
#	30537
#	43338
#	55261
#	65823
#	77582
#	88106
#	101547
#	114652
#	129102
#	140593
#	154650
#	168989
#	181977
#	196249
#	211462
#	226831
#	237146
#	250282
#	263958
#	277981
#	288630
#	302373
#	314796
#
# Disc length: 4347 seconds
#
# Revision: 0
# Processed by: cddbd v1.5.2PL0 Copyright (c) Steve Scherf et al.
# Submitted via: CDex 1.51
#
DISCID=5f10f919
DTITLE=Louis Armstrong - The Essence of Louis Armstrong [CD2]
DYEAR=2006
DGENRE=Jazz
TTITLE0=St. James
TTITLE1=Mack The Knife
TTITLE2=Flat Foot Floogie
TTITLE3=Jeepers Creepers
TTITLE4=Marie
TTITLE5=Boog It
TTITLE6=Yes Suh!
TTITLE7=I Wonder
TTITLE8=You Won't Be Satisfied
TTITLE9=The Frim Fram Sauce
TTITLE10=Blues For Yesterday
TTITLE11=Save It Pretty Mama
TTITLE12=I'm Confessin'
TTITLE13=Blueberry Hill
TTITLE14=Can Anyone Explain?
TTITLE15=La Vie En Rose
TTITLE16=When We're Dancing
TTITLE17=Who Walks In When I Walk Out
TTITLE18=It Takes Two To Tango
TTITLE19=A Kiss To Build A Dream On
TTITLE20=Chloe
TTITLE21=The Dummy Song
TTITLE22=Sitting In The Sun
TTITLE23=Your Cheatin' Heart
TTITLE24=Gone Fishin'
EXTD=YEAR: 2006
EXTT0=
EXTT1=
EXTT2=
EXTT3=
EXTT4=
EXTT5=
EXTT6=
EXTT7=
EXTT8=
EXTT9=
EXTT10=
EXTT11=
EXTT12=
EXTT13=
EXTT14=
EXTT15=
EXTT16=
EXTT17=
EXTT18=
EXTT19=
EXTT20=
EXTT21=
EXTT22=
EXTT23=
EXTT24=
PLAYORDER=
